<?xml version="1.0" encoding="UTF-8" standalone="no"?>
<svg
   xmlns:dc="http://purl.org/dc/elements/1.1/"
   xmlns:cc="http://creativecommons.org/ns#"
   xmlns:rdf="http://www.w3.org/1999/02/22-rdf-syntax-ns#"
   xmlns:svg="http://www.w3.org/2000/svg"
   xmlns="http://www.w3.org/2000/svg"
   xmlns:sodipodi="http://sodipodi.sourceforge.net/DTD/sodipodi-0.dtd"
   xmlns:inkscape="http://www.inkscape.org/namespaces/inkscape"
   height="128"
   version="1.1"
   width="128"
   id="svg4656"
   sodipodi:docname="Logo.svg"
   inkscape:version="0.92.3 (2405546, 2018-03-11)">
  <metadata
     id="metadata4662">
    <rdf:RDF>
      <cc:Work
         rdf:about="">
        <dc:format>image/svg+xml</dc:format>
        <dc:type
           rdf:resource="http://purl.org/dc/dcmitype/StillImage" />
        <dc:title></dc:title>
      </cc:Work>
    </rdf:RDF>
  </metadata>
  <defs
     id="defs4660" />
  <sodipodi:namedview
     pagecolor="#ffffff"
     bordercolor="#666666"
     borderopacity="1"
     objecttolerance="10"
     gridtolerance="10"
     guidetolerance="10"
     inkscape:pageopacity="0"
     inkscape:pageshadow="2"
     inkscape:window-width="1920"
     inkscape:window-height="1001"
     id="namedview4658"
     showgrid="false"
     inkscape:zoom="5.458095"
     inkscape:cx="80.897897"
     inkscape:cy="59.03557"
     inkscape:window-x="-9"
     inkscape:window-y="-9"
     inkscape:window-maximized="1"
     inkscape:current-layer="svg4656" />
  <path
     style="fill:#d85f5f;fill-opacity:1;stroke-width:0.18321411"
     d="m 42.340532,125.13483 c -1.489467,-0.39104 -3.053655,-1.61898 -3.458868,-2.71533 -0.213589,-0.5779 -0.277201,-3.38491 -0.356396,-15.72701 C 38.431875,92.137784 38.417432,91.646066 38.062438,90.936081 37.388647,89.588497 38.285351,89.664113 21.756383,89.561024 5.6025005,89.460273 6.2054948,89.502069 5.0381274,88.402209 4.0224614,87.44528 3.5642766,86.599135 3.2644786,85.126757 3.0137649,83.895443 2.9769368,81.190004 2.9769368,64.003607 c 0,-17.186398 0.036828,-19.891836 0.2875418,-21.12315 0.4297572,-2.11064 1.5926977,-3.580847 3.2719673,-4.136471 0.8033945,-0.265822 2.4692543,-0.298859 15.1151641,-0.29977 8.922958,-7.32e-4 14.458072,-0.0693 14.872753,-0.184491 0.36327,-0.100909 0.8438,-0.342453 1.067844,-0.536764 0.915585,-0.794083 0.928267,-1.019073 0.928267,-16.46706 0,-16.7365262 -0.09196,-15.7915392 1.680236,-17.2663758 1.833151,-1.5255635 0.670813,-1.4551978 23.9143,-1.4477253 16.731314,0.00538 20.489026,0.051537 21.3723,0.2625306 1.721664,0.4112652 3.147898,1.5702157 3.73051,3.0313935 0.302748,0.7592865 0.334681,1.97538 0.41935,15.970918 l 0.09165,15.149051 0.539227,0.562719 c 0.296576,0.309494 0.832477,0.644182 1.190891,0.74375 0.403244,0.112021 6.058392,0.181422 14.834652,0.182054 12.86953,9.16e-4 14.27503,0.03004 15.17683,0.314302 1.62036,0.510776 2.7748,1.920396 3.24133,3.957817 0.24955,1.089838 0.28578,3.788578 0.28578,21.287272 0,17.498693 -0.0362,20.197433 -0.28578,21.287271 -0.29946,1.307786 -0.7638,2.153649 -1.69716,3.091623 -1.09806,1.103493 -0.61174,1.069298 -16.7049,1.174588 -16.095541,0.105304 -15.376377,0.05366 -16.197965,1.163281 -0.379195,0.512135 -0.383805,0.662176 -0.475677,15.48159 -0.106653,17.20331 -0.0133,16.2296 -1.697455,17.70693 -1.794643,1.57426 -0.102252,1.46602 -23.584927,1.50833 -19.270528,0.0347 -20.884105,0.014 -22.013131,-0.28239 z m 11.19408,-12.62529 2.417149,-2.33598 -3.947236,-4.03071 -3.947237,-4.03071 0.04096,6.01664 0.04096,6.01664 0.432529,0.35005 c 0.314001,0.25413 0.722072,0.35005 1.489124,0.35005 h 1.056594 z m 5.75701,1.15745 -1.054113,-1.17853 -0.652008,0.52112 c -0.358605,0.28661 -0.936134,0.81695 -1.283396,1.17853 l -0.631385,0.65741 h 2.337507 2.337508 z m 10.770089,0.67469 c -0.199633,-0.27711 -0.649149,-0.7787 -0.998927,-1.11465 l -0.63596,-0.61081 -1.166313,1.10827 -1.166314,1.10827 2.165241,0.006 2.165242,0.006 -0.362969,-0.50384 z m 9.341016,0.15382 0.432528,-0.35001 0.05354,-5.28793 0.05354,-5.28793 -0.547047,-0.52411 -0.547046,-0.5241 -4.041042,3.91112 c -2.222574,2.15111 -4.041043,3.95164 -4.041043,4.00118 0,0.0495 0.927521,1.0509 2.061158,2.22524 l 2.061159,2.13518 2.040862,0.0257 c 1.759809,0.0222 2.100426,-0.0225 2.473391,-0.32433 z m -14.547664,-5.54115 c -0.717318,-0.79057 -1.393596,-1.43739 -1.502839,-1.43739 -0.109243,0 -0.812908,0.61841 -1.563701,1.37425 l -1.365079,1.37425 1.457094,1.46569 1.457095,1.46569 1.410823,-1.40255 1.410822,-1.40255 z m 7.808596,-4.82903 3.965258,-3.84967 -1.389357,-1.509905 -1.389356,-1.509899 -4.111158,3.977254 -4.11116,3.97725 1.420818,1.4292 c 0.78145,0.78606 1.472318,1.40811 1.535259,1.38232 0.06294,-0.0258 1.898807,-1.77923 4.079696,-3.89655 z m -12.900827,2.39451 1.354456,-1.36356 -2.216064,-2.34653 c -1.218836,-1.29059 -3.005748,-3.128619 -3.970917,-4.084509 l -1.75485,-1.737984 -1.415443,1.415442 -1.415442,1.415443 1.185873,1.238608 c 2.517313,2.62926 6.685721,6.82665 6.779521,6.82665 0.05412,0 0.707914,-0.6136 1.452866,-1.36356 z m 7.130994,-6.910243 c 1.777094,-1.729091 3.555024,-3.455834 3.950953,-3.837205 l 0.719872,-0.693403 -0.800407,-0.880559 c -0.440225,-0.484306 -2.211389,-2.331207 -3.935919,-4.104226 l -3.135508,-3.223671 -4.077881,3.956527 -4.077879,3.956527 3.873821,3.984907 c 2.130602,2.191696 3.958881,3.984906 4.062844,3.984906 0.103961,0 1.643008,-1.41471 3.420104,-3.143803 z m 13.022899,-4.473449 c 0.0097,-1.939666 -0.0103,-2.048417 -0.452847,-2.464171 l -0.462984,-0.434953 -1.460887,1.45232 -1.460887,1.452318 1.404591,1.412876 1.404589,1.412876 0.509145,-0.401021 c 0.50062,-0.394308 0.509313,-0.434996 0.51928,-2.430245 z m -29.675099,0.392206 0.81991,-0.842702 -1.506963,-1.506964 -1.506966,-1.506965 v 2.899631 2.899628 L 48.73466,96.92101 c 0.377879,-0.30248 1.056013,-0.92918 1.506966,-1.392666 z m 25.180379,-4.182576 1.443161,-1.330846 -3.891188,-4.028167 c -2.140153,-2.215491 -3.946726,-4.049261 -4.014607,-4.075045 -0.06788,-0.02578 -0.755652,0.592564 -1.528382,1.374106 l -1.40496,1.420985 3.856105,3.984907 c 2.120857,2.191699 3.910242,3.984907 3.976408,3.984907 0.06617,0 0.769724,-0.598881 1.563463,-1.330847 z m -17.324371,-3.470191 3.362712,-3.269306 -1.337668,-1.415448 c -0.735717,-0.778497 -1.38325,-1.434086 -1.438962,-1.456867 -0.05571,-0.02278 -1.914454,1.716625 -4.130535,3.865345 l -4.029237,3.906764 1.372633,1.468346 1.372632,1.468346 0.732857,-0.648938 c 0.403071,-0.356915 2.246077,-2.120124 4.095568,-3.918242 z m 21.829228,-2.393855 c 0,-2.090516 0.366698,-3.174998 1.422273,-4.206272 1.038212,-1.014306 2.34036,-1.423823 4.527373,-1.423823 h 1.408009 l -3.907845,-4.028658 c -2.149314,-2.215762 -3.952275,-4.029582 -4.006579,-4.030711 -0.0543,-0.0011 -1.909346,1.758517 -4.122318,3.910324 l -4.023583,3.912376 3.920844,4.063497 3.920844,4.063498 0.430491,-0.404425 c 0.381582,-0.358476 0.430491,-0.569319 0.430491,-1.855806 z M 49.2195,86.319933 c 0.514287,-0.473141 2.347377,-2.235228 4.073531,-3.915747 l 3.138461,-3.055489 -3.962925,-4.071257 -3.962924,-4.07126 -4.030711,3.932189 -4.03071,3.932189 0.349021,0.390534 c 0.287893,0.322139 0.556003,0.390535 1.530873,0.390535 1.971294,0 3.293702,0.439494 4.309885,1.432361 1.085027,1.060131 1.413606,2.0551 1.413606,4.28053 0,0.888621 0.05329,1.615673 0.118412,1.615673 0.06513,0 0.539191,-0.387116 1.053481,-0.860258 z m 16.047238,-5.40023 1.43617,-1.313709 -1.39936,-1.529003 -1.399361,-1.529002 -1.467,1.467001 -1.467001,1.467001 1.366528,1.375709 c 0.751592,0.756641 1.395177,1.375711 1.430191,1.375711 0.03502,0 0.70994,-0.591168 1.499833,-1.313708 z m -40.178506,-1.46644 c 0.233223,-0.219102 0.42404,-0.473013 0.42404,-0.56425 0,-0.09124 -1.745058,-1.967201 -3.877904,-4.168812 l -3.877905,-4.002929 -2.366428,2.228992 -2.366428,2.228993 0.06086,1.988299 c 0.08809,2.878268 -0.354329,2.688071 6.252821,2.688071 5.217102,0 5.335648,-0.0082 5.750947,-0.398364 z m 10.46523,-0.02179 0.394719,-0.420156 -1.46348,-1.454896 -1.463479,-1.454896 -1.39279,1.39279 -1.39279,1.39279 0.315991,0.482262 c 0.311515,0.475431 0.346385,0.482263 2.461553,0.482263 2.000126,0 2.172315,-0.02848 2.540276,-0.420157 z m 61.77874,0.369768 c 0,-0.02771 -0.599736,-0.646123 -1.33275,-1.374243 l -1.332749,-1.323856 -1.365074,1.374243 -1.365071,1.374245 h 2.697822 c 1.483802,0 2.697822,-0.02267 2.697822,-0.05039 z m 17.050758,-0.28879 c 0.32998,-0.267199 0.43432,-0.56852 0.49168,-1.419909 l 0.0728,-1.080731 -2.38371,-2.367745 -2.38371,-2.367744 -2.53061,2.399814 c -1.39184,1.319896 -3.1469,3.024341 -3.90014,3.787653 l -1.36952,1.387841 h 5.79217 c 5.36406,0 5.82312,-0.02507 6.21103,-0.339179 z m -9.21927,-6.893216 2.7931,-2.74651 -1.4092,-1.417509 -1.40919,-1.417507 -1.20069,1.129506 c -0.66038,0.621227 -2.49101,2.393221 -4.068065,3.937765 l -2.867375,2.80826 1.385597,1.472897 1.385596,1.472897 1.298567,-1.246644 c 0.71421,-0.685653 2.55545,-2.482573 4.09166,-3.993155 z m -12.809091,2.24067 c 0.03343,-0.07511 -1.690503,-1.944305 -3.83097,-4.153779 l -3.891755,-4.017226 -1.510219,1.393347 -1.510218,1.393349 3.955811,4.086211 3.955812,4.086212 1.385377,-1.325781 c 0.761958,-0.72918 1.412731,-1.38723 1.446162,-1.462333 z m -16.832732,-3.876867 1.549466,-1.56695 -0.538648,-0.599277 C 76.23643,68.487209 75.626615,67.82784 75.177538,67.351547 l -0.816501,-0.865987 -1.201994,1.130759 c -0.661097,0.621917 -2.504933,2.406941 -4.097411,3.966719 l -2.895419,2.835964 1.416054,1.424407 1.416053,1.424408 2.487042,-2.358915 c 1.367873,-1.297401 3.184301,-3.064042 4.036505,-3.925864 z m -15.28896,4.68092 1.414812,-1.347853 -1.166222,-1.216422 C 59.840075,72.430651 58.06592,70.605017 56.538927,69.04272 l -2.776346,-2.840541 -1.473906,1.386812 -1.473906,1.386811 3.883824,4.044446 c 2.136104,2.224445 3.936853,4.032548 4.001663,4.018005 0.06481,-0.01455 0.754504,-0.632976 1.532651,-1.374295 z M 42.28349,72.813 46.307073,68.88901 44.894962,67.463262 43.48285,66.037515 42.238357,67.207021 c -0.684471,0.643228 -2.502184,2.405927 -4.039364,3.917108 l -2.79487,2.747603 0.408444,0.470756 c 0.807308,0.930464 2.239456,2.394502 2.342347,2.394502 0.05775,0 1.915604,-1.765795 4.128576,-3.92399 z m -12.843663,2.313769 1.401704,-1.335402 -3.89361,-4.026183 c -2.141485,-2.214401 -3.946683,-4.004414 -4.011548,-3.977809 -0.06487,0.02661 -0.759173,0.641689 -1.542902,1.366849 l -1.424967,1.318473 3.914984,4.041203 c 2.15324,2.222662 3.968905,4.020292 4.03481,3.994736 0.0659,-0.02556 0.750594,-0.647396 1.521529,-1.381867 z m 69.449606,-6.514751 4.030617,-3.910011 -3.918302,-4.057932 -3.918306,-4.057931 -0.753564,0.672907 c -0.414461,0.370098 -2.264662,2.142024 -4.111561,3.937614 l -3.357994,3.264709 3.907637,4.030311 c 2.149202,2.216671 3.948861,4.030318 3.999245,4.030329 0.05038,9e-6 1.905386,-1.759489 4.122228,-3.909996 z m 15.993887,0.361606 -0.0542,-1.167656 -1.17264,1.063074 -1.17264,1.063074 1.17264,1.273034 1.17264,1.273034 0.0542,-1.168452 c 0.0298,-0.642647 0.0298,-1.693895 0,-2.336108 z M 68.1115,68.060696 72.059515,64.239579 71.286496,63.388737 c -0.425161,-0.467964 -2.192915,-2.310629 -3.928345,-4.094812 l -3.155328,-3.243967 -4.001094,3.868346 c -2.200601,2.127589 -4.001094,3.937843 -4.001094,4.022785 0,0.241769 7.627854,8.054852 7.80498,7.994509 0.08683,-0.02958 1.934479,-1.773287 4.105885,-3.874902 z m -29.37227,-1.936542 2.50893,-2.46158 -3.858929,-3.997606 c -2.122411,-2.198681 -3.922953,-3.997603 -4.001207,-3.997603 -0.160236,0 -7.933474,7.474366 -8.028247,7.719569 -0.03349,0.08664 1.697888,1.969339 3.847497,4.183771 l 3.908384,4.026242 1.557319,-1.505604 c 0.856526,-0.828084 2.686339,-2.613319 4.066253,-3.967189 z m -24.027411,1.46655 C 14.323931,67.129318 13.792175,66.551943 13.53014,66.307651 l -0.476427,-0.44417 v 2.454232 2.45423 l 1.181679,-1.171175 1.181679,-1.171176 z m 97.062551,-4.165535 -1.403,-1.402992 -1.47573,1.332515 -1.47574,1.332512 1.40537,1.543837 1.40537,1.543838 1.47336,-1.473361 1.47336,-1.473358 z m -29.827902,0.50107 C 81.75827,63.666487 81.150298,63.00913 80.59542,62.465442 l -1.008871,-0.988525 -1.47877,1.335254 c -0.813324,0.73439 -1.478771,1.383517 -1.478771,1.442505 0,0.05899 0.63708,0.748091 1.415732,1.531337 l 1.415734,1.424086 1.414085,-1.405793 1.414087,-1.405792 z m -31.833281,1.309886 1.415734,-1.424085 -1.420032,-1.401282 -1.420032,-1.401282 -1.451012,1.339081 -1.451012,1.339079 1.348581,1.486288 c 0.741718,0.817459 1.396608,1.486287 1.45531,1.486287 0.0587,0 0.743809,-0.640839 1.522463,-1.424086 z M 19.241774,64.777958 c 0.728044,-0.732936 1.323717,-1.401293 1.323717,-1.48524 0,-0.08394 -0.587727,-0.758754 -1.30606,-1.499573 l -1.306059,-1.346946 -1.540036,1.401908 -1.540035,1.401909 1.421887,1.430277 c 0.782039,0.786652 1.467109,1.430276 1.522379,1.430276 0.05527,0 0.696163,-0.599674 1.424207,-1.332611 z m 87.466726,-3.737962 1.41459,-1.406293 -3.85982,-3.998523 c -2.1229,-2.199189 -3.92626,-3.998526 -4.00747,-3.998526 -0.0812,0 -0.783867,0.600173 -1.561468,1.333719 l -1.413818,1.333719 3.919146,4.068642 c 2.15553,2.237755 3.95854,4.069747 4.0067,4.071098 0.0481,0.0013 0.72411,-0.630376 1.50214,-1.403836 z m -17.895754,-2.890833 4.030711,-3.918708 -1.36952,-1.388506 C 90.7207,52.078268 90.043295,51.45344 89.968591,51.45344 c -0.07471,0 -1.949134,1.751985 -4.1654,3.8933 l -4.029573,3.8933 1.408303,1.419909 c 0.774567,0.78095 1.451462,1.417213 1.50421,1.413915 0.05275,-0.0033 1.909725,-1.769412 4.126615,-3.924701 z m 26.070954,0.596945 -0.0546,-1.13518 -1.09531,1.020724 -1.09531,1.020726 1.09531,1.174065 1.09531,1.174066 0.0546,-1.05961 c 0.03,-0.582786 0.03,-1.570442 0,-2.194791 z m -38.999353,1.788314 1.353132,-1.362221 -0.609667,-0.698938 c -0.335317,-0.384414 -2.078896,-2.212121 -3.874621,-4.061569 l -3.264958,-3.362635 -0.872554,0.735565 c -0.479905,0.40456 -1.158105,1.032919 -1.50711,1.396351 l -0.634554,0.660788 1.825037,1.874674 c 4.731538,4.860223 6.041462,6.180208 6.133109,6.180208 0.05448,0 0.707965,-0.613 1.452186,-1.362223 z m -14.016852,-6.6813 c 0.03628,-0.06023 -0.544312,-0.755311 -1.290205,-1.544631 l -1.356165,-1.435127 -0.587461,0.494316 c -0.323102,0.271873 -2.167409,2.030003 -4.098456,3.906956 l -3.510996,3.41264 1.397319,1.484737 1.397321,1.484736 3.991341,-3.847062 c 2.195237,-2.115883 4.021024,-3.896337 4.057302,-3.956565 z m -18.717408,1.322099 c -1.82272,-1.895829 -3.595065,-3.716568 -3.938546,-4.046092 l -0.624509,-0.59913 -1.448245,1.348588 -1.448244,1.348588 0.525295,0.62465 c 0.288912,0.343556 2.059285,2.205317 3.93416,4.137246 l 3.408864,3.512597 1.452631,-1.439744 1.45263,-1.439744 z M 30.866459,53.526488 c 0.30393,-0.337521 0.26174,-0.404449 -1.122467,-1.780535 l -1.438269,-1.429834 -3.549491,3.433698 c -1.95222,1.888532 -3.79507,3.669513 -4.095222,3.957732 l -0.54573,0.524037 1.44818,1.456724 1.448181,1.456724 3.76951,-3.633921 c 2.07323,-1.998658 3.911619,-3.791739 4.085308,-3.984625 z M 15.075101,57.513861 C 14.78658,57.153279 14.213737,56.53235 13.802115,56.13402 l -0.748402,-0.724236 v 2.643071 2.64307 l 1.272985,-1.26323 1.272986,-1.263232 z m 99.783519,-6.489239 c -0.0419,-3.083149 0.41048,-2.869036 -6.06155,-2.869036 h -5.16703 l -0.51603,0.538617 -0.51603,0.538616 0.61916,0.718896 c 0.34054,0.395392 2.1032,2.248196 3.91702,4.117345 l 3.29785,3.398451 2.22804,-2.136769 2.22804,-2.136768 z M 87.621855,49.013879 c 0,-0.103505 -0.136447,-0.338963 -0.303218,-0.523242 -0.238349,-0.263374 -0.575649,-0.335051 -1.576676,-0.335051 -2.058722,0 -3.372333,-0.426819 -4.398119,-1.429038 -1.053774,-1.029563 -1.249929,-1.590795 -1.396064,-3.994383 l -0.112523,-1.850745 -4.063388,3.957707 -4.063391,3.957709 3.94604,4.075266 3.94604,4.075266 4.01065,-3.872649 c 2.205856,-2.12996 4.010649,-3.957337 4.010649,-4.06084 z m -34.790205,3.51494 c 2.205629,-2.129272 4.010235,-3.923665 4.010235,-3.987539 0,-0.06388 -1.762702,-1.928774 -3.917114,-4.144216 l -3.917116,-4.028077 -0.480023,0.444168 c -0.437288,0.404626 -0.480025,0.568856 -0.480025,1.844691 0,2.010903 -0.354977,3.031376 -1.413606,4.063768 -1.027584,1.002115 -1.808941,1.270126 -4.142799,1.421017 l -1.617301,0.104562 3.907477,4.069059 c 2.149114,2.237983 3.937304,4.072414 3.973758,4.076514 0.03645,0.0041 1.870886,-1.734676 4.076514,-3.863947 z m -30.800446,-0.527182 3.939103,-3.833295 -5.979965,-0.0064 c -6.964807,-0.0074 -6.751113,-0.05885 -6.89025,1.657915 l -0.08042,0.99231 2.414914,2.519194 c 1.328203,1.385557 2.4695,2.515674 2.536216,2.511371 0.06672,-0.0043 1.893898,-1.732805 4.060405,-3.841119 z m 74.607082,-1.411371 1.421152,-1.412818 -0.489502,-0.510931 c -0.474785,-0.49557 -0.547332,-0.510931 -2.412969,-0.510931 -1.722709,0 -1.967723,0.04158 -2.347506,0.398365 -0.233222,0.219102 -0.424039,0.485112 -0.424039,0.591138 0,0.188942 2.55846,2.857994 2.739573,2.857994 0.05068,0 0.731658,-0.635768 1.513291,-1.412817 z m -30.833954,-0.495787 1.349892,-1.358961 -1.340238,-1.477094 c -1.528876,-1.684995 -1.247245,-1.698272 -3.155484,0.148771 l -1.237126,1.197453 1.416042,1.424396 c 0.778823,0.783418 1.461262,1.424396 1.516533,1.424396 0.05527,0 0.707941,-0.611532 1.450381,-1.358961 z M 34.953161,48.193684 c -0.758708,-0.02943 -2.01759,-0.02943 -2.797516,0 l -1.418048,0.05351 1.358698,1.429347 1.358697,1.429347 1.438819,-1.429347 1.438817,-1.429347 z m 42.591918,-9.561889 c 0,-0.05576 -0.605409,-0.757891 -1.345356,-1.560283 l -1.345354,-1.458893 -4.059462,3.928944 c -2.232702,2.160918 -4.059461,3.971294 -4.059461,4.023057 0,0.05176 0.631146,0.728982 1.402543,1.504932 l 1.402544,1.410818 4.002272,-3.873595 c 2.201252,-2.130476 4.002274,-3.919217 4.002274,-3.97498 z m -16.801078,6.263143 1.420131,-1.42851 -3.989427,-4.083591 -3.989425,-4.083592 -1.42171,1.44145 -1.421709,1.44145 3.895099,4.052419 c 2.142306,2.228831 3.938259,4.060624 3.991006,4.07065 0.05275,0.01002 0.734964,-0.624597 1.516035,-1.410276 z M 68.57149,37.308983 72.576809,33.424514 71.819964,32.59122 C 71.4037,32.132906 69.63339,30.288067 67.885941,28.491573 l -3.17718,-3.266348 -4.030567,3.891032 c -2.216812,2.140069 -4.007435,3.960431 -3.979161,4.04525 0.0652,0.195612 7.650863,8.031943 7.775014,8.031943 0.05067,0 1.894519,-1.748011 4.097443,-3.884467 z m 11.355372,-3.854852 v -2.792537 l -1.416873,1.416872 -1.416872,1.416873 1.366484,1.375665 c 0.751566,0.756616 1.389159,1.375665 1.416872,1.375665 0.02772,0 0.05039,-1.256641 0.05039,-2.792538 z m -28.902531,0.648985 1.052975,-1.072296 -1.461504,-1.452933 -1.461506,-1.452932 -0.553344,0.530137 c -0.543477,0.520684 -0.553345,0.562836 -0.553345,2.363779 0,1.733931 0.0264,1.861201 0.485518,2.340414 0.484508,0.505715 0.486508,0.506052 0.961874,0.161448 0.261996,-0.189927 0.950196,-0.827857 1.529332,-1.417617 z m 26.135557,-5.067954 0.622488,-0.648336 -0.60715,-0.696235 C 76.841293,27.307662 75.070173,25.45355 73.239402,23.570342 l -3.328672,-3.424015 -1.446364,1.454895 -1.446361,1.454896 1.827865,1.877513 c 1.005325,1.032631 2.770272,2.841625 3.922102,4.019983 l 2.09424,2.142473 0.837595,-0.706294 c 0.460677,-0.388462 1.117714,-0.998046 1.460081,-1.354631 z m -18.700117,-2.172813 4.023805,-3.887896 -1.347545,-1.432451 c -0.74115,-0.787846 -1.412795,-1.421216 -1.492544,-1.407486 -0.07975,0.01373 -1.938459,1.756714 -4.130467,3.873301 l -3.985471,3.848337 1.328866,1.436996 c 0.730876,0.790347 1.385269,1.441519 1.454209,1.447047 0.06894,0.0055 1.936055,-1.739504 4.149147,-3.877848 z M 79.83516,14.312046 c -0.142755,-0.793774 -0.708321,-1.150354 -1.824553,-1.150354 h -0.918652 l -2.418373,2.413395 -2.418373,2.413395 3.790024,3.929003 3.790022,3.929003 0.05302,-5.472131 c 0.02916,-3.009672 0.0053,-5.737712 -0.05312,-6.062311 z m -25.684104,6.598503 3.263629,-3.174523 -2.151089,-2.287167 -2.151091,-2.287167 h -2.054116 c -1.748924,0 -2.118381,0.052 -2.486646,0.350012 l -0.432529,0.350013 -0.05399,5.266658 -0.05398,5.266657 0.588749,0.607436 0.588751,0.607437 0.839341,-0.762416 c 0.461637,-0.41933 2.307973,-2.190951 4.10297,-3.93694 z m 13.491538,-2.974466 c -0.0049,-0.05634 -0.623021,-0.7603 -1.373587,-1.564362 l -1.364665,-1.46193 -1.466354,1.457754 -1.466354,1.457753 1.40255,1.410824 1.402548,1.410822 1.437393,-1.304214 c 0.790566,-0.717319 1.433378,-1.35031 1.428469,-1.406647 z m -5.507573,-4.728588 c 0.04463,-0.02519 -0.976821,-0.0458 -2.269889,-0.0458 h -2.351033 l 1.083801,1.156128 1.083803,1.156127 1.186088,-1.110324 c 0.652347,-0.610678 1.222601,-1.130936 1.26723,-1.156128 z m 9.257257,1.099285 1.219426,-1.145088 h -2.520605 -2.520603 l 1.181619,1.192218 c 0.649892,0.655719 1.235422,1.171009 1.301179,1.145088 0.06576,-0.02592 0.668301,-0.56242 1.338984,-1.192218 z"
     id="path5209"
     inkscape:connector-curvature="0" />
</svg>
